# xmcd CD database file
#
# Track frame offsets:
#	150
#	12552
#	28010
#	43227
#	60700
#	76805
#	90087
#	104455
#	126847
#	139855
#	152677
#	163940
#	178985
#	190735
#	199375
#	209397
#	220192
#	231692
#
# Disc length: 3257 seconds
#
# Revision: 0
# Processed by: cddbd v1.4PL0 Copyright (c) Steve Scherf et al.
# Submitted via: CDex 1.40Release
#
DISCID=090cb712
DTITLE=Tee - Lights On
DYEAR=2001
DGENRE=Blues
TTITLE0=Strange Things
TTITLE1=Double Fool
TTITLE2=Easy Balt
TTITLE3=Love Life
TTITLE4=That's How Cold
TTITLE5=Bouncin'
TTITLE6=Beat Up
TTITLE7=Sometime Baby
TTITLE8=Tru Song
TTITLE9=Little Bittle Story
TTITLE10=Something's Wrong
TTITLE11=Something You Got
TTITLE12=Be On Your Merrie Way
TTITLE13=I'll Send You
TTITLE14=Ugly, Fat and Old
TTITLE15=I Don't Play
TTITLE16=Little Girl
TTITLE17=Look What You've Done
EXTD=YEAR: 2001 ID3G: 0
EXTT0=
EXTT1=
EXTT2=
EXTT3=
EXTT4=
EXTT5=
EXTT6=
EXTT7=
EXTT8=
EXTT9=
EXTT10=
EXTT11=
EXTT12=
EXTT13=
EXTT14=
EXTT15=
EXTT16=
EXTT17=
PLAYORDER=
